<?xml version="1.0" encoding="utf-8"?>
<!-- Generator: Adobe Illustrator 16.0.0, SVG Export Plug-In . SVG Version: 6.00 Build 0)  -->
<!DOCTYPE svg PUBLIC "-//W3C//DTD SVG 1.1//EN" "http://www.w3.org/Graphics/SVG/1.1/DTD/svg11.dtd">
<svg version="1.1" id="Layer_1" xmlns="http://www.w3.org/2000/svg" xmlns:xlink="http://www.w3.org/1999/xlink" x="0px" y="0px"
	 width="3536.053px" height="1186.67px" viewBox="0 0 3536.053 1186.67" enable-background="new 0 0 3536.053 1186.67"
	 xml:space="preserve">
<path fill-rule="evenodd" clip-rule="evenodd" fill="#1EABE9" d="M2324.739,678.77c0.566,1.947,1.365,3.861,1.582,5.846
	c0.094,0.838-1.031,1.799-1.596,2.705C2324.725,684.477,2324.733,681.623,2324.739,678.77z"/>
<path fill-rule="evenodd" clip-rule="evenodd" fill="#1EABE9" d="M2324.739,662.908c0.559,1.939,1.365,3.854,1.598,5.83
	c0.094,0.838-1.031,1.807-1.598,2.713C2324.739,668.6,2324.739,665.754,2324.739,662.908z"/>
<path fill-rule="evenodd" clip-rule="evenodd" fill="#1EABE9" d="M2324.801,675.352c0.574,1.938,1.365,3.846,1.598,5.814
	c0.094,0.838-1.023,1.799-1.582,2.713C2324.817,681.041,2324.809,678.205,2324.801,675.352z"/>
<g>
	<g>
		<path fill="#1EABE9" d="M670.086,615.797c0,57.693-87.459,57.693-87.459,0C582.627,558.092,670.086,558.092,670.086,615.797z
			 M589.309,698.996v300.646h74.094V698.996H589.309z"/>
		<path fill="#1EABE9" d="M804.299,575.102v165.805c17.613-30.979,66.811-47.988,98.393-47.988
			c87.459,0,152.443,53.461,152.443,156.707c0,98.395-66.201,156.699-154.264,156.699c-36.445,0-73.494-12.146-96.572-47.979
			l-4.857,41.297h-69.24V575.102H804.299z M809.161,849.625c0,54.059,40.084,88.068,86.85,88.068
			c47.375,0,85.029-35.832,85.029-88.068c0-54.064-37.654-87.463-85.029-87.463C849.245,762.162,809.161,797.391,809.161,849.625z"
			/>
		<path fill="#1EABE9" d="M1172.95,876.348c4.861,37.049,37.049,63.771,89.281,63.771c27.33,0,63.166-10.326,80.17-27.939
			l47.371,46.77c-31.578,32.801-83.205,48.586-128.756,48.586c-103.25,0-164.594-63.771-164.594-159.738
			c0-91.107,61.953-156.693,159.129-156.693c100.211,0,162.77,61.943,151.23,185.244H1172.95z M1335.719,815.004
			c-4.857-38.871-35.227-58.314-77.742-58.314c-40.084,0-72.879,19.443-83.814,58.314H1335.719z"/>
		<path fill="#1EABE9" d="M1532.483,700.221l5.473,34.607c23.08-37.041,54.051-42.514,84.424-42.514
			c30.971,0,60.732,12.154,77.129,28.543l-33.404,64.393c-15.18-12.762-29.15-19.443-53.445-19.443
			c-38.871,0-74.703,20.652-74.703,75.928v157.908h-74.098V700.221H1532.483z"/>
		<path fill="#1EABE9" d="M1984.338,961.377c-34.613,34.018-71.057,47.375-115.395,47.375c-86.85,0-159.125-52.229-159.125-158.521
			c0-106.285,72.275-158.521,159.125-158.521c42.516,0,75.309,12.156,108.107,44.344l-46.762,49.197
			c-17.613-15.799-39.482-23.691-60.127-23.691c-49.811,0-86.246,36.436-86.246,88.672c0,57.096,38.871,87.463,85.027,87.463
			c23.684,0,47.375-6.684,65.594-24.9L1984.338,961.377z"/>
		<path fill="#1EABE9" d="M2320.793,850.23c0,86.246-58.91,156.094-156.086,156.094c-97.178,0-155.482-69.848-155.482-156.094
			c0-85.633,59.521-156.088,154.869-156.088C2259.45,694.143,2320.793,764.598,2320.793,850.23z M2083.323,850.23
			c0,45.553,27.326,88.066,81.385,88.066c54.049,0,81.385-42.514,81.385-88.066c0-44.949-31.584-88.672-81.385-88.672
			C2111.262,761.559,2083.323,805.281,2083.323,850.23z"/>
		<path fill="#1EABE9" d="M2682.762,575.102v424.541h-69.238l-4.859-41.297c-23.08,35.832-60.129,47.979-96.572,47.979
			c-88.068,0-154.266-58.305-154.266-156.699c0-103.246,64.988-156.707,152.443-156.707c31.584,0,80.779,17.01,98.395,47.988
			V575.102H2682.762z M2431.924,849.625c0,52.236,37.654,88.068,85.029,88.068c46.762,0,86.85-34.01,86.85-88.068
			c0-52.234-40.088-87.463-86.85-87.463C2469.579,762.162,2431.924,795.561,2431.924,849.625z"/>
		<path fill="#1EABE9" d="M2827.893,615.797c0,57.693-87.453,57.693-87.453,0C2740.44,558.092,2827.893,558.092,2827.893,615.797z
			 M2747.122,698.996v300.646h74.098V698.996H2747.122z"/>
		<path fill="#1EABE9" d="M3108.493,999.643V842.943c0-45.553-24.908-80.176-72.275-80.176c-45.555,0-76.533,38.266-76.533,83.818
			v153.057H2886.2V699.602h66.197l4.861,40.699c30.367-29.77,60.732-44.947,98.395-44.947c70.453,0,126.93,52.84,126.93,146.984
			v157.305H3108.493z"/>
	</g>
	<path fill="#1EABE9" d="M3481.391,669.801l54.662,41.305l-33.406,42.514c23.08,26.127,31.584,55.881,31.584,88.672
		c0,37.057-13.969,89.293-63.166,111.76c49.801,24.9,61.949,60.74,61.949,98.998c0,82.602-63.166,133.621-150.018,133.621
		c-86.85,0-151.838-52.842-151.838-133.621h73.492c0,38.871,35.832,64.383,78.346,64.383c42.516,0,75.92-23.078,75.92-64.383
		c0-41.297-38.871-60.127-75.92-60.127c-93.531,0-151.838-57.09-151.838-150.631c0-93.523,68.027-151.838,151.838-151.838
		c23.684,0,47.98,3.039,68.633,17.01L3481.391,669.801z M3304.651,842.291c0,52.244,35.227,83.215,78.346,83.215
		c42.516,0,77.742-31.584,77.742-83.215c0-51.615-35.227-84.424-77.742-84.424C3339.877,757.867,3304.651,790.057,3304.651,842.291z
		"/>
	<path fill-rule="evenodd" clip-rule="evenodd" fill="#1EABE9" d="M122.137,1016.953c-51.119-35.545-86.484-83.346-109.408-140.807
		c-2.578-12.008-5.342-23.963-7.691-36.018c-26.645-136.605,54.686-268.137,190.086-307.537
		c132.555-38.561,276.354,31.574,325.59,159.086c27.699,71.74,21.729,142.73-5.928,213.029c-1.871,3.807-3.748,7.611-5.625,11.426
		C426.739,1060.793,256.061,1098.416,122.137,1016.953z M391.387,930.754c13.705-10.225,12.748-16.668,1.201-28.203
		c-16.688-16.691-27.746-28.73-55.049-10.543c-46.166,30.777-117.15,15.979-149.986-24.381
		c-34.898-42.902-35.096-117.217-0.422-158.793c33.475-40.135,102.994-49.678,154.184-22.412
		c9.41,5.008,17.357,20.342,28.865,13.279c13.354-8.193,24.037-21.217,34.695-33.195c7.869-8.846-1.93-13.961-7.213-17.908
		c-58.842-43.902-123.969-49.395-191.461-26.582c-62.563,21.141-96.18,68.771-106.355,132.348
		c-19.439,121.426,62.039,217.463,189.34,215.076C322.573,970.223,358.424,955.307,391.387,930.754z"/>
</g>
<g>
	<path fill-rule="evenodd" clip-rule="evenodd" fill="#1EABE9" d="M624.389,288.713c9.24,44.365,40.154,66.438,77.486,55.313
		c37.691-11.229,49.607-43.486,33.258-90.025c-18.928-21.275-41.795-33.121-70.199-23.299
		C638.333,239.898,624.68,260.121,624.389,288.713z"/>
	<path fill-rule="evenodd" clip-rule="evenodd" fill="#1EABE9" d="M829.104,231.945c53.119,27.633,85.744,11.441,94.707-46.984
		c-4.49-18.779-16.584-32.254-30.816-44.23c-47.863-6.695-62.646,1.492-79.838,44.178c-0.217,4.166-0.43,8.332-0.641,12.5
		c0.484,3.406,0.971,6.818,1.463,10.221C819.022,215.738,824.061,223.84,829.104,231.945z"/>
	<path fill-rule="evenodd" clip-rule="evenodd" fill="#1EABE9" d="M1009.893,129.373c21.676,42.541,42.049,49.744,87.641,30.967
		c4.377-5.818,7.031-13.736,16.428-13.373c0.59-5.85,1.182-11.705,1.771-17.559c-3.818-52.012-28.148-69.129-80.691-56.775
		c-3.713,3.5-7.426,7.004-11.145,10.504c-2.434,3.043-4.871,6.09-7.311,9.133c-2.158,6.148-4.316,12.299-6.473,18.443
		C1010.04,116.93,1009.967,123.152,1009.893,129.373z"/>
	<path fill-rule="evenodd" clip-rule="evenodd" fill="#1EABE9" d="M1240.489,53.857c3.256,7.24-2.436,10.098-6.695,13.654
		c1.484,1.18,1.566,2.443,0.256,3.803c4.063,0.443,7.547,1.184,9.77,5.621c11.605,23.258,29.49,36.332,56.324,30.23
		c26.982-6.137,37.006-25.955,37.754-51.867c-4.787-9.748-9.59-19.494-14.361-29.27C1281.211,4.738,1262.456,11.033,1240.489,53.857
		z"/>
	<path fill-rule="evenodd" clip-rule="evenodd" fill="#1EABE9" d="M1463.243,64.566c37.145,31.332,59.58,28.68,83.271-9.838
		c-2.178-37.34-18.963-56.922-46.77-54.533C1471.254,2.641,1458.106,25.828,1463.243,64.566z"/>
	<path fill-rule="evenodd" clip-rule="evenodd" fill="#1EABE9" d="M1696.717,77.572c27.381,11.559,48.033,4.438,61.555-22.297
		c0.016-19.184-3.117-37.184-22.947-46.041c-18.955-8.451-36.678-5.547-48.631,12.109
		C1672.336,42.488,1677.43,61.66,1696.717,77.572z"/>
	<path fill-rule="evenodd" clip-rule="evenodd" fill="#1EABE9" d="M1888.512,104.023c22.436,2.785,44.064,3.914,52.018-24.293
		c0.188-13.26-2.65-25.672-10.279-36.73c-18.451-11.09-36.607-9.574-54.545,1.271c-6.947,15.74-10.047,31.68-2.467,48.174
		c1.691,0.82,2.668,2.17,2.885,4.027C1880.249,98.988,1884.387,101.508,1888.512,104.023z"/>
	<path fill-rule="evenodd" clip-rule="evenodd" fill="#1EABE9" d="M2053.637,117.086c9.443,27.762,29.895,30.295,54.314,23.73
		c17.645-28.438,16.326-45.488-4.389-56.668C2079.934,71.389,2062.739,82.723,2053.637,117.086z"/>
	<path fill-rule="evenodd" clip-rule="evenodd" fill="#1EABE9" d="M2230.176,166.096c6.449,37.758,21.287,44.049,56.033,23.758
		c-0.092-2.229,0.822-3.885,2.791-4.977c0.652-12.35,0.156-24.451-7.35-35.1C2259.403,139.156,2240.176,138.082,2230.176,166.096z"
		/>
	<path fill-rule="evenodd" clip-rule="evenodd" fill="#1EABE9" d="M512.399,378.43c-54.008-1.088-75.309,15.75-86.813,68.613
		c0.33,1.453,0.799,2.9,0.869,4.365c0.027,0.367-1.232,0.807-1.904,1.213c4.439,4.658,4.342,10.357,3.717,16.176
		c13.998,29.563,36.809,46.703,70.006,46.316c32.133-0.381,57.018-21.617,64.209-52.309c6.934-29.635-6.668-60.373-33.746-75.924
		C523.422,383.826,517.848,381.236,512.399,378.43z"/>
	<path fill-rule="evenodd" clip-rule="evenodd" fill="#1EABE9" d="M2428.204,226.639c-3.287-2.059-6.559-4.125-9.846-6.18
		c-12.76,0.086-24.84,2.023-29.863,15.99c-3.24,9-3.316,18.385,4.514,25.338c8.961,7.924,19.256,12.238,30.467,4.393
		C2439.522,254.951,2438.545,241.248,2428.204,226.639z"/>
	<path fill-rule="evenodd" clip-rule="evenodd" fill="#1EABE9" d="M2643.1,414.084c-4.016,10.57-8.916,21.826,4.543,28.963
		c7.287,3.865,16.232,4.365,22.078-3.334c8.605-11.342,2.838-20.633-5.674-29.029C2657.055,411.82,2650.077,412.951,2643.1,414.084z
		"/>
	<path fill-rule="evenodd" clip-rule="evenodd" fill="#1EABE9" d="M2715.616,517.656c9.814,0.57,21.568,4.311,23.117-11.172
		c0.869-8.838-5.256-13.598-13.303-12.449c-15.271,2.182-11.225,13.732-9.846,23.59L2715.616,517.656z"/>
	<path fill-rule="evenodd" clip-rule="evenodd" fill="#1EABE9" d="M2568.321,339.498c-1.707-7.807-3.396-15.613-5.102-23.416
		c-1.861-1.287-3.721-2.574-5.582-3.857c-3.318-0.799-6.65-1.596-9.969-2.395c-15.754,3.578-24.668,12.873-24.699,29.578
		C2538.04,360.52,2553.172,363.631,2568.321,339.498z"/>
</g>
</svg>
